<svg width="416" height="405" viewBox="0 0 416 405" fill="none" xmlns="http://www.w3.org/2000/svg">
<path d="M184.583 2.25009C88.7501 12.6668 11.6667 89.7501 1.25007 183.5C-9.1666 281.417 47.0834 368.917 132.5 402.25C138.75 404.333 145 400.167 145 391.833V358.5C145 358.5 136.667 360.583 126.25 360.583C97.0834 360.583 84.5834 335.583 82.5001 321C80.4167 312.667 76.2501 306.417 70.0001 300.167C63.7501 298.083 61.6667 298.083 61.6667 296C61.6667 291.833 67.9167 291.833 70.0001 291.833C82.5001 291.833 92.9167 306.417 97.0834 312.667C107.5 329.333 120 333.5 126.25 333.5C134.583 333.5 140.833 331.417 145 329.333C147.083 314.75 153.333 300.167 165.833 291.833C117.917 281.417 82.5001 254.333 82.5001 208.5C82.5001 185.583 92.9167 162.667 107.5 146C105.417 141.833 103.333 131.417 103.333 116.833C103.333 108.5 103.333 96.0001 109.583 83.5001C109.583 83.5001 138.75 83.5001 167.917 110.583C178.333 106.417 192.917 104.333 207.5 104.333C222.083 104.333 236.667 106.417 249.167 110.583C276.25 83.5001 307.5 83.5001 307.5 83.5001C311.667 96.0001 311.667 108.5 311.667 116.833C311.667 133.5 309.583 141.833 307.5 146C322.083 162.667 332.5 183.5 332.5 208.5C332.5 254.333 297.083 281.417 249.167 291.833C261.667 302.25 270 321 270 339.75V393.917C270 400.167 276.25 406.417 284.583 404.333C361.667 373.083 415.833 298.083 415.833 210.583C415.833 85.5834 309.583 -12.3332 184.583 2.25009Z" fill="white"/>
</svg>
