<svg width="417" height="405" viewBox="0 0 417 405" fill="none" xmlns="http://www.w3.org/2000/svg">
<path d="M185.083 1.74997C89.2501 12.1666 12.1667 89.25 1.75007 183C-8.6666 280.917 47.5834 368.417 133 401.75C139.25 403.833 145.5 399.667 145.5 391.333V358C145.5 358 137.167 360.083 126.75 360.083C97.5834 360.083 85.0834 335.083 83.0001 320.5C80.9167 312.167 76.7501 305.917 70.5001 299.667C64.2501 297.583 62.1667 297.583 62.1667 295.5C62.1667 291.333 68.4167 291.333 70.5001 291.333C83.0001 291.333 93.4167 305.917 97.5834 312.167C108 328.833 120.5 333 126.75 333C135.083 333 141.333 330.917 145.5 328.833C147.583 314.25 153.833 299.667 166.333 291.333C118.417 280.917 83.0001 253.833 83.0001 208C83.0001 185.083 93.4167 162.167 108 145.5C105.917 141.333 103.833 130.917 103.833 116.333C103.833 108 103.833 95.5 110.083 83C110.083 83 139.25 83 168.417 110.083C178.833 105.917 193.417 103.833 208 103.833C222.583 103.833 237.167 105.917 249.667 110.083C276.75 83 308 83 308 83C312.167 95.5 312.167 108 312.167 116.333C312.167 133 310.083 141.333 308 145.5C322.583 162.167 333 183 333 208C333 253.833 297.583 280.917 249.667 291.333C262.167 301.75 270.5 320.5 270.5 339.25V393.417C270.5 399.667 276.75 405.917 285.083 403.833C362.167 372.583 416.333 297.583 416.333 210.083C416.333 85.0833 310.083 -12.8334 185.083 1.74997Z" fill="#C4C4C4"/>
</svg>
