<svg width="413" height="413" viewBox="0 0 413 413" fill="none" xmlns="http://www.w3.org/2000/svg">
<path d="M297.917 0H114.583C51.4021 0 0 51.4021 0 114.583V297.917C0 361.098 51.4021 412.5 114.583 412.5H297.917C361.098 412.5 412.5 361.098 412.5 297.917V114.583C412.5 51.4021 361.098 0 297.917 0ZM366.667 297.917C366.667 335.821 335.821 366.667 297.917 366.667H114.583C76.6792 366.667 45.8333 335.821 45.8333 297.917V114.583C45.8333 76.6792 76.6792 45.8333 114.583 45.8333H297.917C335.821 45.8333 366.667 76.6792 366.667 114.583V297.917Z" fill="black"/>
<path d="M206.25 91.6667C143.069 91.6667 91.667 143.069 91.667 206.25C91.667 269.431 143.069 320.833 206.25 320.833C269.432 320.833 320.834 269.431 320.834 206.25C320.834 143.069 269.432 91.6667 206.25 91.6667ZM206.25 275C168.346 275 137.5 244.154 137.5 206.25C137.5 168.346 168.346 137.5 206.25 137.5C244.154 137.5 275 168.346 275 206.25C275 244.154 244.154 275 206.25 275ZM320.834 68.75C314.756 68.75 308.927 71.1644 304.629 75.4621C300.331 79.7598 297.917 85.5888 297.917 91.6667C297.917 97.7445 300.331 103.573 304.629 107.871C308.927 112.169 314.756 114.583 320.834 114.583C326.912 114.583 332.74 112.169 337.038 107.871C341.336 103.573 343.75 97.7445 343.75 91.6667C343.75 85.5888 341.336 79.7598 337.038 75.4621C332.74 71.1644 326.912 68.75 320.834 68.75Z" fill="black"/>
</svg>
