<svg width="376" height="376" viewBox="0 0 376 376" fill="none" xmlns="http://www.w3.org/2000/svg">
<path d="M42.1667 0.5C19.1458 0.5 0.5 19.1458 0.5 42.1667V333.833C0.5 356.854 19.1458 375.5 42.1667 375.5H333.833C356.854 375.5 375.5 356.854 375.5 333.833V42.1667C375.5 19.1458 356.854 0.5 333.833 0.5H42.1667ZM42.1667 42.1667H333.833V333.833H42.1667V42.1667ZM100.069 69.5918C82.2145 69.5918 71.5042 80.3245 71.5042 94.6162C71.5042 108.908 82.2158 119.6 98.2783 119.6C116.132 119.6 126.843 108.908 126.843 94.6162C126.843 80.3245 116.131 69.5918 100.069 69.5918ZM72.9284 146.333V292.167H125.5V146.333H72.9284ZM168.876 146.333V292.167H221.447V212.455C221.447 188.726 238.377 185.314 243.461 185.314C248.544 185.314 262.137 190.413 262.137 212.455V292.167H313V212.455C313 166.684 292.661 146.333 267.224 146.333C241.786 146.333 228.218 154.803 221.447 166.678V146.333H168.876Z" fill="#C4C4C4"/>
</svg>
