<svg width="375" height="375" viewBox="0 0 375 375" fill="none" xmlns="http://www.w3.org/2000/svg">
<path d="M41.6667 0C18.6458 0 0 18.6458 0 41.6667V333.333C0 356.354 18.6458 375 41.6667 375H333.333C356.354 375 375 356.354 375 333.333V41.6667C375 18.6458 356.354 0 333.333 0H41.6667ZM41.6667 41.6667H333.333V333.333H41.6667V41.6667ZM99.5687 69.0918C81.7145 69.0918 71.0042 79.8245 71.0042 94.1162C71.0042 108.408 81.7158 119.1 97.7783 119.1C115.632 119.1 126.343 108.408 126.343 94.1162C126.343 79.8245 115.631 69.0918 99.5687 69.0918ZM72.4284 145.833V291.667H125V145.833H72.4284ZM168.376 145.833V291.667H220.947V211.955C220.947 188.226 237.877 184.814 242.961 184.814C248.044 184.814 261.637 189.913 261.637 211.955V291.667H312.5V211.955C312.5 166.184 292.161 145.833 266.724 145.833C241.286 145.833 227.718 154.303 220.947 166.178V145.833H168.376Z" fill="white"/>
</svg>
