<svg width="3840" height="49" viewBox="0 0 3840 49" fill="none" xmlns="http://www.w3.org/2000/svg">
<path d="M3840 10.8001L3794.4 16.2001C3748.53 21.6001 3656 32.4001 3565.33 33.2945C3474.4 34.2563 3384 25.1438 3290.67 20.7057C3200 16.2001 3109.33 16.2001 3016 17.0945C2925.6 18.0563 2834.67 19.7438 2744 25.1945C2651.47 30.5438 2560 39.6563 2469.33 42.3057C2377.07 45.0563 2285.33 41.3438 2194.67 36.9057C2102.93 32.4001 2010.67 27.0001 1920 29.7001C1828.53 32.4001 1736 43.2001 1645.33 44.0945C1554.4 45.0563 1464 35.9438 1370.67 29.7001C1280 23.4563 1189.33 19.7438 1096 16.2001C1005.6 12.6563 914.67 8.94382 824 11.6945C731.47 14.3438 640 23.4563 549.33 24.3001C457.07 25.1438 365.33 18.0563 274.67 20.7057C182.93 23.4563 90.6701 35.9438 45.3301 42.3057L0 48.6001V0.000118256L45.6001 0.000118256C91.4701 0.000118256 184 0.000118256 274.67 0.000118256C365.6 0.000118256 456 0.000118256 549.33 0.000118256C640 0.000118256 730.67 0.000118256 824 0.000118256C914.4 0.000118256 1005.33 0.000118256 1096 0.000118256C1188.53 0.000118256 1280 0.000118256 1370.67 0.000118256C1462.93 0.000118256 1554.67 0.000118256 1645.33 0.000118256C1737.07 0.000118256 1829.33 0.000118256 1920 0.000118256C2011.47 0.000118256 2104 0.000118256 2194.67 0.000118256C2285.6 0.000118256 2376 0.000118256 2469.33 0.000118256C2560 0.000118256 2650.67 0.000118256 2744 0.000118256C2834.4 0.000118256 2925.33 0.000118256 3016 0.000118256C3108.53 0.000118256 3200 0.000118256 3290.67 0.000118256C3382.93 0.000118256 3474.67 0.000118256 3565.33 0.000118256C3657.07 0.000118256 3749.33 0.000118256 3794.67 0.000118256L3840 0.000118256V10.8001Z" fill="#222222"/>
</svg>
