<svg width="3840" height="54" viewBox="0 0 3840 54" fill="none" xmlns="http://www.w3.org/2000/svg">
<path d="M0 43.2L45.6 37.8C91.4667 32.4 184 21.6 274.667 20.7056C365.6 19.7438 456 28.8563 549.333 33.2944C640 37.8 730.667 37.8 824 36.9056C914.4 35.9438 1005.33 34.2563 1096 28.8056C1188.53 23.4563 1280 14.3438 1370.67 11.6944C1462.93 8.94377 1554.67 12.6563 1645.33 17.0944C1737.07 21.6 1829.33 27 1920 24.3C2011.47 21.6 2104 10.8 2194.67 9.90565C2285.6 8.94377 2376 18.0563 2469.33 24.3C2560 30.5438 2650.67 34.2563 2744 37.8C2834.4 41.3438 2925.33 45.0563 3016 42.3056C3108.53 39.6563 3200 30.5438 3290.67 29.7C3382.93 28.8563 3474.67 35.9438 3565.33 33.2944C3657.07 30.5438 3749.33 18.0563 3794.67 11.6944L3840 5.40002V54H3794.4C3748.53 54 3656 54 3565.33 54C3474.4 54 3384 54 3290.67 54C3200 54 3109.33 54 3016 54C2925.6 54 2834.67 54 2744 54C2651.47 54 2560 54 2469.33 54C2377.07 54 2285.33 54 2194.67 54C2102.93 54 2010.67 54 1920 54C1828.53 54 1736 54 1645.33 54C1554.4 54 1464 54 1370.67 54C1280 54 1189.33 54 1096 54C1005.6 54 914.667 54 824 54C731.467 54 640 54 549.333 54C457.067 54 365.333 54 274.667 54C182.933 54 90.6667 54 45.3333 54H0V43.2Z" fill="#222222"/>
</svg>
